<?xml version="1.0" encoding="iso-8859-1"?>
<!-- Uploaded to: SVG Repo, www.svgrepo.com, Generator: SVG Repo Mixer Tools -->
<svg height="800px" width="800px" version="1.1" id="Layer_1" xmlns="http://www.w3.org/2000/svg" xmlns:xlink="http://www.w3.org/1999/xlink" 
	 viewBox="0 0 512 512" xml:space="preserve">
<path style="fill:#C97767;" d="M448.248,93.706c-66.603-66.603-174.588-66.603-241.192,0c-10.269,10.269-18.95,21.525-26.053,33.459
	c50.984-0.972,101.853,20.825,136.28,63.64c45.866,57.039,49.044,134.573,13.744,194.006c42.516-0.836,84.778-17.469,117.221-49.912
	C514.85,268.294,514.85,160.308,448.248,93.706z"/>
<g>
	<circle style="fill:#FFB085;" cx="307.841" cy="76.581" r="30.105"/>
	<circle style="fill:#FFB085;" cx="398.664" cy="180.184" r="30.105"/>
	<circle style="fill:#FFB085;" cx="184.365" cy="297.67" r="170.55"/>
</g>
<path d="M226.814,426.136c-5.613,0-10.89-3.45-12.948-9.024c-2.64-7.15,1.016-15.087,8.166-17.727
	c10.936-4.038,21.13-9.823,30.297-17.194c46.6-37.472,54.026-105.869,16.555-152.468c-4.113-5.116-8.693-9.866-13.616-14.121
	c-0.195-0.163-0.967-0.792-1.669-1.365c-0.738-0.603-1.412-1.154-1.582-1.297c-5.82-4.921-6.548-13.63-1.626-19.449
	c4.916-5.812,13.603-6.544,19.425-1.648c0.189,0.157,0.691,0.567,1.237,1.013c0.974,0.795,2.052,1.681,2.276,1.874
	c6.169,5.334,11.914,11.292,17.066,17.7c47.008,58.46,37.691,144.265-20.769,191.275c-11.497,9.244-24.292,16.504-38.034,21.578
	C230.017,425.859,228.401,426.136,226.814,426.136z"/>
<path d="M219.41,194.399c-0.911,0-1.808-0.097-2.705-0.276c-0.883-0.166-1.753-0.442-2.581-0.787
	c-0.828-0.345-1.628-0.773-2.388-1.27c-0.745-0.497-1.463-1.076-2.098-1.711c-0.635-0.635-1.214-1.339-1.711-2.098
	c-0.497-0.745-0.925-1.546-1.27-2.388c-0.345-0.828-0.607-1.697-0.787-2.581c-0.179-0.883-0.262-1.794-0.262-2.691
	c0-3.63,1.463-7.19,4.03-9.757c0.635-0.635,1.352-1.214,2.098-1.711c0.759-0.497,1.559-0.925,2.388-1.27
	c0.828-0.345,1.697-0.621,2.581-0.787c1.78-0.359,3.616-0.359,5.396,0c0.883,0.166,1.753,0.442,2.581,0.787
	c0.828,0.345,1.628,0.773,2.388,1.27c0.745,0.497,1.463,1.076,2.098,1.711c2.567,2.567,4.044,6.128,4.044,9.757
	c0,0.897-0.097,1.808-0.276,2.691c-0.179,0.883-0.442,1.753-0.787,2.581c-0.345,0.842-0.773,1.642-1.27,2.388
	c-0.497,0.759-1.076,1.463-1.711,2.098c-0.635,0.635-1.352,1.214-2.098,1.711c-0.759,0.497-1.559,0.925-2.388,1.27
	c-0.828,0.345-1.697,0.621-2.581,0.787C221.202,194.302,220.307,194.399,219.41,194.399z"/>
<g>
	<circle style="fill:#C97767;" cx="45.322" cy="302.501" r="30.105"/>
	<circle style="fill:#C97767;" cx="138.698" cy="221.49" r="30.105"/>
	<circle style="fill:#C97767;" cx="226.816" cy="297.394" r="30.105"/>
	<circle style="fill:#C97767;" cx="131.798" cy="372.54" r="30.105"/>
</g>
<path d="M512,214.301c0-49.241-19.176-95.536-53.994-130.355l0,0C423.187,49.126,376.893,29.95,327.651,29.95
	s-95.535,19.178-130.354,53.997c-9.086,9.086-17.181,19.088-24.16,29.789c-36.854,2.2-73.389,15.432-104.286,40.278
	C30.477,184.871,6.416,228.825,1.1,277.778S9.851,374.825,40.709,413.2s74.811,62.435,123.764,67.751
	c6.776,0.736,13.533,1.1,20.254,1.1c41.826,0,82.106-14.122,115.168-40.708c15.592-12.538,28.591-27.117,38.95-43.045
	c45.026-2.704,87.097-21.576,119.162-53.64C492.824,309.837,512,263.544,512,214.301z M319.373,88.112L319.373,88.112
	c-3.079,3.08-7.174,4.775-11.528,4.775c-4.356,0-8.45-1.696-11.529-4.775c-6.357-6.357-6.357-16.7,0-23.057
	c3.178-3.18,7.353-4.768,11.529-4.768c4.173,0,8.349,1.59,11.528,4.768C325.73,71.412,325.73,81.755,319.373,88.112z
	 M32.616,312.719c-5.633-7.005-4.517-17.288,2.49-22.922c3.006-2.417,6.613-3.591,10.202-3.591c4.772,0,9.505,2.08,12.722,6.081
	c5.633,7.005,4.517,17.288-2.49,22.922C48.532,320.84,38.249,319.725,32.616,312.719z M282.598,419.832
	c-32.629,26.237-73.528,38.196-115.146,33.678c-41.625-4.52-78.997-24.978-105.234-57.607
	c-12.35-15.359-21.535-32.551-27.328-50.786c3.43,0.835,6.946,1.272,10.475,1.272c9.658,0,19.376-3.163,27.47-9.672
	c18.867-15.17,21.874-42.861,6.703-61.728c-11.664-14.509-30.732-19.626-47.498-14.324c8.062-33.482,26.827-63.206,54.109-85.143
	c28.9-23.239,63.59-34.528,98.073-34.528c45.881,0,91.385,20.003,122.308,58.457c1.163,1.446,2.288,2.913,3.392,4.393
	c0.201,0.269,0.403,0.54,0.602,0.81c26.146,35.49,35.668,80.126,27.756,122.319c-0.094,0.493-0.188,0.985-0.287,1.478
	c-0.235,1.187-0.49,2.371-0.752,3.554c-0.279,1.245-0.571,2.486-0.879,3.725c-0.126,0.509-0.253,1.017-0.384,1.525
	C327.801,368.731,309.83,397.934,282.598,419.832z M354.519,368.749c10.868-25.99,15.625-54.147,13.846-82.699
	c-1.677-26.921-9.154-52.741-21.847-76.111c-0.349-0.646-0.709-1.288-1.067-1.929c-0.776-1.388-1.566-2.77-2.381-4.142
	c-0.642-1.083-1.29-2.164-1.956-3.238c-0.447-0.719-0.9-1.435-1.357-2.15c-0.874-1.366-1.767-2.724-2.68-4.074
	c-0.262-0.386-0.519-0.776-0.784-1.159c-1.094-1.591-2.226-3.165-3.378-4.731c-0.337-0.457-0.675-0.912-1.016-1.366
	c-1.259-1.68-2.538-3.348-3.863-4.996c-0.983-1.221-1.979-2.428-2.988-3.62c-0.16-0.19-0.326-0.374-0.487-0.563
	c-0.865-1.016-1.738-2.023-2.622-3.018c-0.072-0.08-0.144-0.157-0.215-0.236c-30.071-33.675-70.7-54.763-115.082-60.065
	c3.203-3.882,6.598-7.618,10.17-11.19c13.935-13.935,30.032-24.92,47.533-32.649c-1.72,13.079,2.425,26.787,12.451,36.814
	c8.293,8.293,19.318,12.86,31.046,12.86c11.728,0,22.753-4.567,31.046-12.86c13.162-13.163,16.192-32.669,9.113-48.766
	c34.157,4.401,65.733,19.848,90.485,44.601l0,0c29.605,29.605,45.91,68.968,45.91,110.837s-16.304,81.232-45.911,110.837
	C415.391,348.238,386.185,363.292,354.519,368.749z"/>
<path d="M429.714,149.135c-17.118-17.117-44.973-17.117-62.091,0c-8.293,8.293-12.86,19.32-12.86,31.046
	c0,11.727,4.567,22.753,12.86,31.045c8.293,8.293,19.318,12.86,31.046,12.86s22.753-4.567,31.045-12.86
	c8.293-8.293,12.86-19.318,12.86-31.046S438.007,157.428,429.714,149.135z M410.197,191.709L410.197,191.709
	c-3.079,3.08-7.174,4.775-11.529,4.775c-4.356,0-8.449-1.696-11.529-4.775c-3.079-3.079-4.775-7.174-4.775-11.528
	c0-4.356,1.696-8.449,4.775-11.529c3.178-3.178,7.353-4.768,11.528-4.768c4.175,0,8.349,1.588,11.528,4.768
	c3.079,3.079,4.775,7.174,4.775,11.529C414.972,184.535,413.278,188.63,410.197,191.709z"/>
<path d="M111.189,187.275c-18.867,15.17-21.874,42.861-6.703,61.728c8.661,10.773,21.405,16.375,34.258,16.375
	c9.658,0,19.376-3.163,27.47-9.672c18.867-15.17,21.874-42.861,6.703-61.728C157.746,175.11,130.055,172.102,111.189,187.275z
	 M148.919,234.196c-7.007,5.633-17.288,4.517-22.922-2.49c-5.633-7.005-4.517-17.288,2.49-22.922
	c3.006-2.417,6.613-3.591,10.202-3.591c4.772,0,9.505,2.08,12.722,6.081C157.041,218.28,155.925,228.563,148.919,234.196z"/>
<path d="M261.027,269.881c-15.173-18.867-42.864-21.873-61.728-6.702c-18.867,15.17-21.874,42.861-6.703,61.728
	c8.661,10.773,21.405,16.375,34.258,16.375c9.658,0,19.376-3.163,27.47-9.672C273.191,316.439,276.198,288.748,261.027,269.881
	L261.027,269.881z M237.029,310.101c-7.005,5.633-17.29,4.517-22.922-2.49c-5.633-7.005-4.517-17.288,2.49-22.922
	c3.006-2.417,6.613-3.591,10.2-3.591c4.772,0,9.506,2.08,12.722,6.081C245.152,294.184,244.034,304.467,237.029,310.101z"/>
<path d="M166.017,345.021c-15.17-18.868-42.863-21.876-61.728-6.703c-9.14,7.349-14.87,17.817-16.136,29.476
	c-1.266,11.659,2.084,23.114,9.433,32.252c7.349,9.139,17.817,14.869,29.476,16.136c1.615,0.175,3.224,0.262,4.825,0.262
	c9.961,0,19.554-3.363,27.429-9.695c9.14-7.349,14.87-17.817,16.136-29.476S173.366,354.16,166.017,345.021L166.017,345.021z
	 M148.01,374.294c-0.471,4.329-2.597,8.217-5.992,10.945c-3.392,2.73-7.648,3.972-11.976,3.503
	c-4.328-0.469-8.217-2.597-10.945-5.992c-2.73-3.394-3.973-7.647-3.503-11.976c0.471-4.329,2.597-8.217,5.992-10.945
	c3.006-2.417,6.613-3.591,10.202-3.591c4.772,0,9.505,2.08,12.722,6.081C147.237,365.711,148.48,369.963,148.01,374.294z"/>
</svg>